<svg width="16" height="16" viewBox="0 0 16 16" fill="none" xmlns="http://www.w3.org/2000/svg">
<g opacity="0.5">
<path fill-rule="evenodd" clip-rule="evenodd" d="M8.17798 5.16916L8.23732 5.18098C8.29162 5.18486 8.34547 5.20295 8.39248 5.23617L9.8043 6.23372C10.0328 6.3952 10.1677 6.65061 10.1677 6.9221V8.29963C10.1677 8.45727 10.0338 8.58507 9.86877 8.58507C9.7037 8.58507 9.56988 8.45727 9.56988 8.29963V6.9221C9.56988 6.8316 9.52493 6.74647 9.44875 6.69264L8.73073 6.18498L8.73126 8.29963C8.73088 8.45396 8.66582 8.60757 8.5376 8.72005L6.93326 10.1275C6.8453 10.2046 6.78357 10.3052 6.75601 10.4161L6.17956 12.7373C6.10337 13.0441 5.7812 13.2338 5.45997 13.1611C5.13874 13.0883 4.94008 12.7806 5.01627 12.4739L5.59272 10.1527C5.6754 9.81973 5.8606 9.51809 6.12446 9.28661L6.93979 8.57067L6.93993 6.08473C6.93993 5.89402 7.03966 5.7159 7.20573 5.60999L7.7563 5.25884C7.88317 5.17793 8.03388 5.14831 8.17798 5.16916ZM7.73072 10.1393L8.60019 9.41972C8.64329 9.44671 8.68319 9.47935 8.71858 9.5174L8.76815 9.57851L10.6759 12.287C10.8602 12.5486 10.7875 12.9033 10.5136 13.0793C10.2592 13.2427 9.92078 13.1945 9.72619 12.9773L9.68394 12.9242L7.77615 10.2158C7.75872 10.191 7.7436 10.1655 7.73072 10.1393L8.60019 9.41972L7.73072 10.1393ZM6.67315 6.99398V7.74982L5.97796 8.32762C5.86722 8.41955 5.70576 8.41981 5.59519 8.33517L5.55629 8.29947C5.46003 8.19372 5.45975 8.03951 5.54837 7.93391L5.58577 7.89678L6.67315 6.99398ZM6.85011 2.82367C7.51039 2.82367 8.04566 3.33485 8.04566 3.96542C8.04566 4.59599 7.51039 5.10717 6.85011 5.10717C6.18982 5.10717 5.65455 4.59599 5.65455 3.96542C5.65455 3.33485 6.18982 2.82367 6.85011 2.82367Z" fill="black"/>
</g>
</svg>
